<?xml version="1.0" standalone="no"?>
<!DOCTYPE svg PUBLIC "-//W3C//DTD SVG 1.1//EN"
  "http://www.w3.org/Graphics/SVG/1.1/DTD/svg11.dtd">
<svg width="202mm" height="191.82333374023432mm" viewBox="-105 -92.82299804687499 202 191.82333374023432" xmlns="http://www.w3.org/2000/svg" version="1.1">
	<title>svgOutput</title>
	<desc>made with tinkercad</desc>
<path d="M 95.51899719238281 -1.6249999999999996 L 95.63883972167969 1.1102230246251565e-16 L 95.87999725341797 3.269999980926513 L 96 8.177000045776365 L 95.87999725341797 13.083999633789059 L 95.51899719238281 17.978000640869137 L 94.91799926757812 22.850000381469723 L 94.0790023803711 27.686000823974602 L 93.00299835205078 32.47499847412109 L 91.69400024414062 37.20500183105468 L 90.15499877929688 41.86600112915038 L 88.38800048828125 46.44499969482421 L 86.39900207519531 50.931999206542955 L 84.19200134277344 55.31600189208983 L 81.77300262451172 59.587001800537095 L 79.14700317382812 63.734001159667955 L 77.87801361083984 65.53600311279295 L 76.32099914550781 67.7470016479492 L 73.3010025024414 71.61599731445311 L 70.09500122070312 75.33300018310545 L 66.71099853515625 78.88700103759764 L 65.53600311279297 80.0058135986328 L 63.15599822998047 82.27200317382811 L 59.439998626708984 85.47799682617186 L 55.56999969482422 88.4980010986328 L 51.55699920654297 91.32399749755858 L 47.4109992980957 93.94999694824217 L 43.13999938964844 96.36900329589841 L 39.899497985839844 98.00033569335935 L 22.500999450683594 80.60102081298827 L 22.500999450683594 80.1750030517578 L 22.075000762939453 80.1750030517578 L 0 80.1750030517578 L -1.7896666526794434 80.1750030517578 L -30.073999404907227 80.1750030517578 L -30.500999450683594 80.1750030517578 L -30.500999450683594 80.60202026367186 L -47.89849853515625 98.00033569335935 L -51.138999938964844 96.36900329589841 L -55.40999984741211 93.94999694824217 L -59.55699920654297 91.32399749755858 L -63.56999969482422 88.4980010986328 L -65.53600311279297 86.96340942382811 L -67.43900299072266 85.47799682617186 L -71.15599822998047 82.27200317382811 L -74.70999908447266 78.88700103759764 L -78.09500122070312 75.33300018310545 L -81.3010025024414 71.61599731445311 L -84.31999969482422 67.7470016479492 L -85.8775634765625 65.53600311279295 L -87.14700317382812 63.734001159667955 L -89.77300262451172 59.587001800537095 L -92.19200134277344 55.31600189208983 L -94.39900207519531 50.931999206542955 L -96.38800048828125 46.44499969482421 L -98.15399932861328 41.86600112915038 L -99.69400024414062 37.20500183105468 L -101.00299835205078 32.47499847412109 L -102.0780029296875 27.686000823974602 L -102.91699981689453 22.850000381469723 L -103.51799774169922 17.978000640869137 L -103.87899780273438 13.083999633789059 L -104 8.177000045776365 L -103.87899780273438 3.269999980926513 L -103.6378402709961 1.1102230246251565e-16 L -103.51799774169922 -1.6249999999999996 L -102.91699981689453 -6.495999813079832 L -102.0780029296875 -11.331999778747557 L -101.00299835205078 -16.12100028991699 L -99.69400024414062 -20.85199928283691 L -98.15399932861328 -25.511999130249016 L -96.38800048828125 -30.09199905395507 L -94.39900207519531 -34.57899856567382 L -92.19200134277344 -38.963001251220696 L -89.77300262451172 -43.23400115966796 L -87.14700317382812 -47.38000106811523 L -84.31999969482422 -51.39300155639647 L -81.3010025024414 -55.263000488281236 L -78.09500122070312 -58.97900009155272 L -74.70999908447266 -62.5340003967285 L -71.55718994140625 -65.53600311279295 L -71.15599822998047 -65.91799926757811 L -67.43900299072266 -69.12400054931639 L -65.53600311279297 -70.60941314697264 L -63.56999969482422 -72.1439971923828 L -59.55699920654297 -74.97000122070311 L -55.40999984741211 -77.5960006713867 L -51.138999938964844 -80.01499938964842 L -46.755001068115234 -82.2220001220703 L -42.268001556396484 -84.21099853515624 L -37.68899917602539 -85.97799682617186 L -36.50299835205078 -86.36959838867186 L -33.02799987792969 -87.51699829101561 L -29.50200080871582 -88.49279785156249 L -28.29800033569336 -88.82599639892577 L -23.509000778198242 -89.90200042724608 L -18.67300033569336 -90.74099731445311 L -18.003000259399414 -90.82364654541014 L -16.99799919128418 -90.94762420654295 L -13.800999641418457 -91.34200286865233 L -8.906000137329102 -91.70300292968749 L -4 -91.82299804687499 L 0 -91.72518157958983 L 0.9070000052452087 -91.70300292968749 L 5.802000045776367 -91.34200286865233 L 8.998000144958496 -90.94766998291014 L 10.003000259399414 -90.82366943359374 L 10.67300033569336 -90.74099731445311 L 15.508999824523926 -89.90200042724608 L 20.29800033569336 -88.82599639892577 L 25.02899932861328 -87.51699829101561 L 29.68899917602539 -85.97799682617186 L 34.26900100708008 -84.21099853515624 L 38.75600051879883 -82.2220001220703 L 39.552547454833984 -81.8209991455078 L 43.13999938964844 -80.01499938964842 L 47.4109992980957 -77.5960006713867 L 51.55699920654297 -74.97000122070311 L 55.56999969482422 -72.1439971923828 L 59.439998626708984 -69.12400054931639 L 63.15599822998047 -65.91799926757811 L 65.53600311279297 -63.65248107910155 L 66.71099853515625 -62.5340003967285 L 70.09500122070312 -58.97900009155272 L 73.3010025024414 -55.263000488281236 L 76.32099914550781 -51.39300155639647 L 79.14700317382812 -47.38000106811523 L 81.77300262451172 -43.23400115966796 L 84.19200134277344 -38.963001251220696 L 86.39900207519531 -34.57899856567382 L 88.38800048828125 -30.09199905395507 L 90.15499877929688 -25.511999130249016 L 91.69400024414062 -20.85199928283691 L 93.00299835205078 -16.12100028991699 L 94.0790023803711 -11.331999778747557 L 94.91799926757812 -6.495999813079832 L 95.51899719238281 -1.6249999999999996 M 20.50200080871582 -56.85368728637694 L 21.00200080871582 -56.8209991455078 L 21.981000900268555 -56.88499832153319 L 22.94300079345703 -57.07600021362303 L 23.871999740600586 -57.39199829101561 L 24.576000213623047 -57.739200592041 L 24.75200080871582 -57.82600021362303 L 25.56800079345703 -58.370998382568345 L 26.305999755859375 -59.01800155639647 L 26.628799438476562 -59.38619995117186 L 26.952999114990234 -59.756000518798814 L 27.49799919128418 -60.57199859619139 L 27.93199920654297 -61.451999664306626 L 28.246999740600586 -62.38199996948241 L 28.41994285583496 -63.25305557250975 L 28.437999725341797 -63.34400177001952 L 28.503000259399414 -64.32299804687499 L 28.437999725341797 -65.30300140380858 L 28.391738891601562 -65.53600311279295 L 28.246999740600586 -66.26499938964842 L 27.93199920654297 -67.19400024414061 L 27.49799919128418 -68.07499694824217 L 26.952999114990234 -68.89099884033202 L 26.305999755859375 -69.62799835205077 L 25.56800079345703 -70.27500152587889 L 24.75200080871582 -70.8209991455078 L 24.576000213623047 -70.90779876708983 L 23.871999740600586 -71.25499725341795 L 22.94300079345703 -71.5699996948242 L 21.981000900268555 -71.76200103759764 L 21.00200080871582 -71.82599639892577 L 20.50200080871582 -71.79331207275389 L 20.50200080871582 -71.82599639892577 L 19.847000122070312 -71.82599639892577 L 14.189000129699707 -71.82599639892577 L 13.50100040435791 -71.82599639892577 L 8.998000144958496 -71.82599639892577 L 0 -71.82599639892577 L -18.003000259399414 -71.82599639892577 L -29.50200080871582 -71.82599639892577 L -29.50200080871582 -71.79331207275389 L -29.981000900268555 -71.76200103759764 L -30.94300079345703 -71.5699996948242 L -31.871999740600586 -71.25499725341795 L -32.75199890136719 -70.8209991455078 L -32.768001556396484 -70.81029510498045 L -33.56800079345703 -70.27500152587889 L -34.305999755859375 -69.62799835205077 L -34.952999114990234 -68.89099884033202 L -35.49800109863281 -68.07499694824217 L -35.93199920654297 -67.19400024414061 L -36.24700164794922 -66.26499938964842 L -36.39173889160156 -65.53600311279295 L -36.4379997253418 -65.30300140380858 L -36.50299835205078 -64.32299804687499 L -36.4379997253418 -63.34400177001952 L -36.24700164794922 -62.38199996948241 L -35.93199920654297 -61.451999664306626 L -35.49800109863281 -60.57199859619139 L -34.952999114990234 -59.756000518798814 L -34.305999755859375 -59.01800155639647 L -33.56800079345703 -58.370998382568345 L -32.768001556396484 -57.83668518066405 L -32.75199890136719 -57.82600021362303 L -31.871999740600586 -57.39199829101561 L -30.94300079345703 -57.07600021362303 L -29.981000900268555 -56.88499832153319 L -29.50200080871582 -56.85368728637694 L -29.50200080871582 -56.8209991455078 L 0 -56.8209991455078 L 8.998000144958496 -56.8209991455078 L 13.50100040435791 -56.8209991455078 L 16.384000778198242 -56.8209991455078 L 18.20400619506836 -56.8209991455078 L 18.75673484802246 -56.8209991455078 L 19.28978729248047 -56.8209991455078 L 19.810667037963867 -56.8209991455078 L 20.345346450805664 -56.8209991455078 L 20.50200080871582 -56.8209991455078 L 20.50200080871582 -56.85368728637694 M 9.434000015258789 -81.82499694824217 L 9.5 -81.8209991455078 L 9.565999984741211 -81.82499694824217 L 9.630000114440918 -81.83799743652342 L 9.692000389099121 -81.85900115966795 L 9.75100040435791 -81.88800048828124 L 9.798567771911621 -81.9199981689453 L 9.805999755859375 -81.9250030517578 L 9.854999542236328 -81.96800231933592 L 9.89900016784668 -82.01699829101561 L 9.9350004196167 -82.07199859619139 L 9.96399974822998 -82.13099670410155 L 9.984999656677246 -82.19300079345702 L 9.998000144958496 -82.25800323486327 L 10.003000259399414 -82.32299804687499 L 9.998000144958496 -82.38899993896483 L 9.989265441894531 -82.43199920654295 L 9.984999656677246 -82.45300292968749 L 9.96399974822998 -82.51599884033202 L 9.9350004196167 -82.57499694824217 L 9.89900016784668 -82.62899780273436 L 9.854999542236328 -82.67900085449217 L 9.805999755859375 -82.7220001220703 L 9.75100040435791 -82.75900268554686 L 9.727999687194824 -82.77030181884764 L 9.692000389099121 -82.78800201416014 L 9.630000114440918 -82.80899810791014 L 9.565999984741211 -82.82199859619139 L 9.5 -82.82599639892577 L 9.434000015258789 -82.82199859619139 L 9.369999885559082 -82.80899810791014 L 9.307999610900879 -82.78800201416014 L 9.24899959564209 -82.75900268554686 L 9.215999603271484 -82.73680114746092 L 9.194000244140625 -82.7220001220703 L 9.145000457763672 -82.67900085449217 L 9.10099983215332 -82.62899780273436 L 9.0649995803833 -82.57499694824217 L 9.03600025177002 -82.51599884033202 L 9.015000343322754 -82.45300292968749 L 9.010734558105469 -82.43199920654295 L 9.001999855041504 -82.38899993896483 L 8.998000144958496 -82.32299804687499 L 9.001999855041504 -82.25800323486327 L 9.015000343322754 -82.19300079345702 L 9.03600025177002 -82.13099670410155 L 9.0649995803833 -82.07199859619139 L 9.10099983215332 -82.01699829101561 L 9.145000457763672 -81.96800231933592 L 9.194000244140625 -81.9250030517578 L 9.201432228088379 -81.9199981689453 L 9.24899959564209 -81.88800048828124 L 9.307999610900879 -81.85900115966795 L 9.369999885559082 -81.83799743652342 L 9.434000015258789 -81.82499694824217 M 55.35599899291992 -30.659999847412102 L 58.185001373291016 -33.48799896240234 L 53.941001892089844 -37.73199844360351 L 51.112998962402344 -34.90299987792968 L 55.35599899291992 -30.659999847412102 M 34.140499114990234 -51.87549972534178 L 34.13999938964844 -51.874999999999986 L 38.382999420166016 -47.631999969482415 L 38.38349914550781 -47.63249969482421 L 41.21200180053711 -50.460998535156236 L 36.96900177001953 -54.703998565673814 L 34.140499114990234 -51.87549972534178 M -17.56599998474121 -81.82499694824217 L -17.5 -81.8209991455078 L -17.43400001525879 -81.82499694824217 L -17.3700008392334 -81.83799743652342 L -17.308000564575195 -81.85900115966795 L -17.249000549316406 -81.88800048828124 L -17.201433181762695 -81.9199981689453 L -17.194000244140625 -81.9250030517578 L -17.145000457763672 -81.96800231933592 L -17.10099983215332 -82.01699829101561 L -17.065000534057617 -82.07199859619139 L -17.035999298095703 -82.13099670410155 L -17.014999389648438 -82.19300079345702 L -17.00200080871582 -82.25800323486327 L -16.99799919128418 -82.32299804687499 L -17.00200080871582 -82.38899993896483 L -17.01073455810547 -82.43199920654295 L -17.014999389648438 -82.45300292968749 L -17.035999298095703 -82.51599884033202 L -17.065000534057617 -82.57499694824217 L -17.10099983215332 -82.62899780273436 L -17.145000457763672 -82.67900085449217 L -17.194000244140625 -82.7220001220703 L -17.249000549316406 -82.75900268554686 L -17.308000564575195 -82.78800201416014 L -17.3700008392334 -82.80899810791014 L -17.408000946044922 -82.81671905517577 L -17.43400001525879 -82.82199859619139 L -17.5 -82.82599639892577 L -17.56599998474121 -82.82199859619139 L -17.6299991607666 -82.80899810791014 L -17.691999435424805 -82.78800201416014 L -17.750999450683594 -82.75900268554686 L -17.805999755859375 -82.7220001220703 L -17.854999542236328 -82.67900085449217 L -17.89900016784668 -82.62899780273436 L -17.934999465942383 -82.57499694824217 L -17.964000701904297 -82.51599884033202 L -17.985000610351562 -82.45300292968749 L -17.98926544189453 -82.43199920654295 L -17.99799919128418 -82.38899993896483 L -18.003000259399414 -82.32299804687499 L -17.99799919128418 -82.25800323486327 L -17.985000610351562 -82.19300079345702 L -17.964000701904297 -82.13099670410155 L -17.934999465942383 -82.07199859619139 L -17.89900016784668 -82.01699829101561 L -17.854999542236328 -81.96800231933592 L -17.805999755859375 -81.9250030517578 L -17.798566818237305 -81.9199981689453 L -17.750999450683594 -81.88800048828124 L -17.691999435424805 -81.85900115966795 L -17.6299991607666 -81.83799743652342 L -17.56599998474121 -81.82499694824217 M 70.91400146484375 -20.75900077819824 L 68.08499908447266 -17.930000305175778 L 72.3280029296875 -13.6870002746582 L 75.15699768066406 -16.51600074768066 L 70.91400146484375 -20.75900077819824 M 65.53600311279297 -23.86700057983398 L 66.6709976196289 -25.002000808715813 L 65.53600311279297 -26.136999130249016 L 62.428001403808594 -29.24500083923339 L 59.5994987487793 -26.416500091552727 L 59.5989990234375 -26.41600036621093 L 63.84199905395508 -22.173000335693356 L 65.53600311279297 -23.86700057983398 M 42.62649917602539 -43.38949966430663 L 42.625999450683594 -43.38899993896484 L 46.86899948120117 -39.14599990844726 L 46.86949920654297 -39.146499633789055 L 49.698001861572266 -41.97499847412109 L 45.45500183105469 -46.217998504638665 L 42.62649917602539 -43.38949966430663 z" fill="none" stroke="rgb(255,0,0)" stroke-width="0.001mm" />
</svg>